<svg width="146" height="29" viewBox="0 0 146 29" fill="none" xmlns="http://www.w3.org/2000/svg">
<path d="M7.83081 20.7178L8.86841 19.0698C9.39738 19.5011 9.92635 19.8592 10.4553 20.144C10.9843 20.4289 11.5214 20.6405 12.0667 20.7788C12.62 20.9172 13.1816 20.9863 13.7512 20.9863C14.5813 20.9863 15.3056 20.848 15.9241 20.5713C16.5507 20.2946 17.039 19.9121 17.3889 19.4238C17.7389 18.9274 17.9138 18.3577 17.9138 17.7148C17.9138 17.015 17.7144 16.4372 17.3157 15.9814C16.925 15.5176 16.4164 15.1229 15.7898 14.7974C15.1632 14.4718 14.4958 14.1626 13.7878 13.8696C13.1938 13.6174 12.6038 13.3488 12.0178 13.064C11.4319 12.7791 10.8988 12.4495 10.4187 12.0752C9.9467 11.6927 9.56828 11.2329 9.28345 10.6958C8.99862 10.1587 8.8562 9.51172 8.8562 8.75488C8.8562 7.78646 9.10034 6.93197 9.58862 6.19141C10.0769 5.45085 10.7524 4.87305 11.615 4.45801C12.4858 4.04297 13.4867 3.83545 14.6179 3.83545C15.3829 3.83545 16.1519 3.93717 16.925 4.14062C17.6982 4.33594 18.4469 4.62484 19.1711 5.00732L18.2922 6.76514C17.7226 6.43148 17.1244 6.17513 16.4978 5.99609C15.8793 5.81706 15.269 5.72754 14.6667 5.72754C13.9506 5.72754 13.3199 5.84961 12.7747 6.09375C12.2375 6.32975 11.8144 6.66341 11.5051 7.09473C11.204 7.5179 11.0535 8.01432 11.0535 8.58398C11.0535 9.21875 11.2366 9.75179 11.6028 10.1831C11.9771 10.6144 12.4573 10.9888 13.0432 11.3062C13.6373 11.6154 14.2639 11.9165 14.9231 12.2095C15.5497 12.4862 16.1682 12.7791 16.7786 13.0884C17.3971 13.3895 17.9545 13.7476 18.4509 14.1626C18.9555 14.5695 19.3583 15.0578 19.6594 15.6274C19.9605 16.1971 20.1111 16.8848 20.1111 17.6904C20.1111 18.724 19.8507 19.6313 19.3298 20.4126C18.809 21.1857 18.0766 21.7879 17.1326 22.2192C16.1967 22.6506 15.0981 22.8662 13.8367 22.8662C12.7299 22.8662 11.676 22.6872 10.675 22.3291C9.67407 21.971 8.72599 21.4339 7.83081 20.7178ZM28.7048 22.7441C27.4923 22.7441 26.4018 22.4674 25.4333 21.9141C24.4649 21.3607 23.7 20.6079 23.1384 19.6558C22.585 18.6955 22.3083 17.609 22.3083 16.3965C22.3083 15.1921 22.585 14.1138 23.1384 13.1616C23.7 12.2013 24.4649 11.4445 25.4333 10.8911C26.4018 10.3296 27.4923 10.0488 28.7048 10.0488C29.9174 10.0488 31.0038 10.3296 31.9641 10.8911C32.9244 11.4445 33.6812 12.2013 34.2346 13.1616C34.788 14.1138 35.0647 15.1921 35.0647 16.3965C35.0647 17.609 34.788 18.6955 34.2346 19.6558C33.6812 20.6079 32.9244 21.3607 31.9641 21.9141C31.0038 22.4674 29.9174 22.7441 28.7048 22.7441ZM28.6926 20.9375C29.5146 20.9375 30.2511 20.7381 30.9021 20.3394C31.5531 19.9406 32.0658 19.3994 32.4402 18.7158C32.8227 18.0322 33.0139 17.255 33.0139 16.3843C33.0139 15.5298 32.8227 14.7607 32.4402 14.0771C32.0658 13.3936 31.5531 12.8524 30.9021 12.4536C30.2511 12.0549 29.5146 11.8555 28.6926 11.8555C27.8707 11.8555 27.1301 12.0549 26.4709 12.4536C25.8199 12.8524 25.3031 13.3936 24.9207 14.0771C24.5463 14.7607 24.3591 15.5298 24.3591 16.3843C24.3591 17.255 24.5463 18.0322 24.9207 18.7158C25.3031 19.3994 25.8199 19.9406 26.4709 20.3394C27.1301 20.7381 27.8707 20.9375 28.6926 20.9375ZM48.0286 20.7422C47.4345 21.3851 46.7306 21.8815 45.9167 22.2314C45.1029 22.5732 44.2281 22.7441 43.2922 22.7441C42.0797 22.7441 40.9892 22.4674 40.0208 21.9141C39.0605 21.3607 38.2996 20.6038 37.738 19.6436C37.1847 18.6833 36.908 17.6009 36.908 16.3965C36.908 15.1839 37.1847 14.1016 37.738 13.1494C38.2996 12.1891 39.0605 11.4323 40.0208 10.8789C40.9892 10.3255 42.0797 10.0488 43.2922 10.0488C44.22 10.0488 45.0907 10.2197 45.9045 10.5615C46.7183 10.9033 47.4223 11.3957 48.0164 12.0386L46.8201 13.2959C46.3888 12.8402 45.872 12.4902 45.2698 12.2461C44.6757 12.002 44.045 11.8799 43.3777 11.8799C42.5232 11.8799 41.7623 12.0752 41.095 12.4658C40.4358 12.8483 39.915 13.3773 39.5325 14.0527C39.1581 14.7282 38.9709 15.5054 38.9709 16.3843C38.9709 17.2632 39.1581 18.0444 39.5325 18.728C39.915 19.4116 40.4358 19.9487 41.095 20.3394C41.7623 20.7218 42.5232 20.9131 43.3777 20.9131C44.045 20.9131 44.6798 20.791 45.282 20.5469C45.8842 20.2946 46.3969 19.9447 46.8201 19.4971L48.0286 20.7422ZM51.8982 6.43555C51.5564 6.43555 51.2675 6.31755 51.0315 6.08154C50.8036 5.8374 50.6897 5.54443 50.6897 5.20264C50.6897 4.86898 50.8036 4.58415 51.0315 4.34814C51.2675 4.11214 51.5564 3.99414 51.8982 3.99414C52.2481 3.99414 52.5411 4.11214 52.7771 4.34814C53.0131 4.58415 53.1311 4.86898 53.1311 5.20264C53.1311 5.54443 53.0131 5.8374 52.7771 6.08154C52.5411 6.31755 52.2481 6.43555 51.8982 6.43555ZM52.8992 22.5H50.8972V10.293H52.8992V22.5ZM66.6077 22.5H64.8865L64.7522 20.8887C64.3046 21.4665 63.7349 21.9222 63.0432 22.2559C62.3515 22.5814 61.5784 22.7441 60.7239 22.7441C59.845 22.7441 59.0597 22.5732 58.3679 22.2314C57.6762 21.8815 57.1309 21.4054 56.7322 20.8032C56.3416 20.201 56.1462 19.5174 56.1462 18.7524C56.1462 17.9468 56.3578 17.2388 56.781 16.6284C57.2123 16.0099 57.7942 15.5257 58.5266 15.1758C59.2672 14.8258 60.1054 14.6509 61.0413 14.6509C61.6516 14.6509 62.2742 14.7282 62.9089 14.8828C63.5437 15.0293 64.1093 15.2327 64.6057 15.4932V14.9805C64.6057 14.3294 64.443 13.776 64.1174 13.3203C63.7919 12.8564 63.3565 12.5024 62.8113 12.2583C62.266 12.006 61.6638 11.8799 61.0046 11.8799C60.435 11.8799 59.8531 11.9857 59.259 12.1973C58.665 12.4007 58.0953 12.7181 57.55 13.1494L56.8909 11.4282C57.5989 10.9725 58.3435 10.6307 59.1248 10.4028C59.906 10.1668 60.6791 10.0488 61.4441 10.0488C62.502 10.0488 63.4135 10.2645 64.1785 10.6958C64.9516 11.119 65.5497 11.7253 65.9729 12.5146C66.3961 13.2959 66.6077 14.2236 66.6077 15.2979V22.5ZM61.0779 20.9131C61.7045 20.9131 62.2782 20.7829 62.7991 20.5225C63.3199 20.262 63.7431 19.8877 64.0686 19.3994C64.3941 18.903 64.5732 18.3171 64.6057 17.6416V17.4341C64.1581 17.0841 63.6536 16.8156 63.092 16.6284C62.5387 16.4331 61.9731 16.3354 61.3953 16.3354C60.4919 16.3354 59.7351 16.5552 59.1248 16.9946C58.5225 17.4341 58.2214 17.9915 58.2214 18.667C58.2214 19.0902 58.3435 19.4727 58.5876 19.8145C58.8399 20.1562 59.1817 20.4248 59.613 20.6201C60.0444 20.8154 60.5326 20.9131 61.0779 20.9131ZM72.2839 22.5H70.1599V3.70117H72.2839V22.5ZM75.2136 20.7178L76.2512 19.0698C76.7802 19.5011 77.3092 19.8592 77.8381 20.144C78.3671 20.4289 78.9042 20.6405 79.4495 20.7788C80.0028 20.9172 80.5644 20.9863 81.134 20.9863C81.9641 20.9863 82.6884 20.848 83.3069 20.5713C83.9335 20.2946 84.4218 19.9121 84.7717 19.4238C85.1217 18.9274 85.2966 18.3577 85.2966 17.7148C85.2966 17.015 85.0972 16.4372 84.6985 15.9814C84.3079 15.5176 83.7992 15.1229 83.1726 14.7974C82.546 14.4718 81.8787 14.1626 81.1707 13.8696C80.5766 13.6174 79.9866 13.3488 79.4006 13.064C78.8147 12.7791 78.2817 12.4495 77.8015 12.0752C77.3295 11.6927 76.9511 11.2329 76.6663 10.6958C76.3814 10.1587 76.239 9.51172 76.239 8.75488C76.239 7.78646 76.4832 6.93197 76.9714 6.19141C77.4597 5.45085 78.1352 4.87305 78.9978 4.45801C79.8686 4.04297 80.8695 3.83545 82.0007 3.83545C82.7657 3.83545 83.5347 3.93717 84.3079 4.14062C85.081 4.33594 85.8297 4.62484 86.554 5.00732L85.675 6.76514C85.1054 6.43148 84.5072 6.17513 83.8806 5.99609C83.2621 5.81706 82.6518 5.72754 82.0496 5.72754C81.3334 5.72754 80.7027 5.84961 80.1575 6.09375C79.6204 6.32975 79.1972 6.66341 78.8879 7.09473C78.5868 7.5179 78.4363 8.01432 78.4363 8.58398C78.4363 9.21875 78.6194 9.75179 78.9856 10.1831C79.3599 10.6144 79.8401 10.9888 80.426 11.3062C81.0201 11.6154 81.6467 11.9165 82.3059 12.2095C82.9325 12.4862 83.551 12.7791 84.1614 13.0884C84.7799 13.3895 85.3373 13.7476 85.8337 14.1626C86.3383 14.5695 86.7411 15.0578 87.0422 15.6274C87.3433 16.1971 87.4939 16.8848 87.4939 17.6904C87.4939 18.724 87.2335 19.6313 86.7126 20.4126C86.1918 21.1857 85.4594 21.7879 84.5154 22.2192C83.5795 22.6506 82.4809 22.8662 81.2195 22.8662C80.1127 22.8662 79.0588 22.6872 78.0579 22.3291C77.0569 21.971 76.1088 21.4339 75.2136 20.7178ZM91.7175 6.43555C91.3757 6.43555 91.0868 6.31755 90.8508 6.08154C90.623 5.8374 90.509 5.54443 90.509 5.20264C90.509 4.86898 90.623 4.58415 90.8508 4.34814C91.0868 4.11214 91.3757 3.99414 91.7175 3.99414C92.0675 3.99414 92.3604 4.11214 92.5964 4.34814C92.8324 4.58415 92.9504 4.86898 92.9504 5.20264C92.9504 5.54443 92.8324 5.8374 92.5964 6.08154C92.3604 6.31755 92.0675 6.43555 91.7175 6.43555ZM92.7185 22.5H90.7166V10.293H92.7185V22.5ZM98.5779 28.6035H96.5759V10.293H98.3582L98.4558 12.0752C99.0255 11.4486 99.7131 10.9562 100.519 10.5981C101.324 10.2319 102.207 10.0488 103.168 10.0488C104.364 10.0488 105.434 10.3255 106.378 10.8789C107.33 11.4323 108.079 12.1891 108.624 13.1494C109.178 14.1016 109.454 15.1839 109.454 16.3965C109.454 17.6009 109.178 18.6833 108.624 19.6436C108.079 20.6038 107.33 21.3607 106.378 21.9141C105.434 22.4674 104.364 22.7441 103.168 22.7441C102.248 22.7441 101.394 22.5773 100.604 22.2437C99.823 21.91 99.1475 21.4461 98.5779 20.8521V28.6035ZM103.009 20.9131C103.864 20.9131 104.62 20.7218 105.28 20.3394C105.939 19.9487 106.451 19.4116 106.818 18.728C107.192 18.0444 107.379 17.2632 107.379 16.3843C107.379 15.4972 107.192 14.716 106.818 14.0405C106.443 13.3569 105.927 12.8198 105.267 12.4292C104.616 12.0386 103.868 11.8433 103.021 11.8433C102.216 11.8433 101.487 12.0223 100.836 12.3804C100.193 12.7384 99.6724 13.2308 99.2737 13.8574C98.8749 14.4759 98.643 15.1839 98.5779 15.9814V16.8115C98.643 17.609 98.8708 18.3171 99.2615 18.9355C99.6521 19.554 100.169 20.0382 100.812 20.3882C101.463 20.7381 102.195 20.9131 103.009 20.9131ZM111.42 21.438L111.945 19.5581C112.238 19.8348 112.571 20.0749 112.946 20.2783C113.32 20.4818 113.715 20.6405 114.13 20.7544C114.545 20.8602 114.964 20.9131 115.387 20.9131C116.144 20.9131 116.754 20.7463 117.218 20.4126C117.682 20.0789 117.914 19.6436 117.914 19.1064C117.914 18.7158 117.792 18.3944 117.548 18.1421C117.312 17.8817 116.998 17.6579 116.608 17.4707C116.217 17.2835 115.798 17.1045 115.35 16.9336C114.805 16.722 114.264 16.4819 113.727 16.2134C113.19 15.9448 112.742 15.5908 112.384 15.1514C112.034 14.7119 111.859 14.1341 111.859 13.418C111.859 12.7344 112.03 12.1403 112.372 11.6357C112.714 11.1312 113.19 10.7406 113.8 10.4639C114.419 10.1872 115.127 10.0488 115.924 10.0488C117.128 10.0488 118.313 10.3499 119.476 10.9521L118.878 12.7588C118.618 12.5879 118.317 12.4373 117.975 12.3071C117.633 12.1688 117.283 12.063 116.925 11.9897C116.567 11.9165 116.229 11.8799 115.912 11.8799C115.318 11.8799 114.838 12.0182 114.471 12.2949C114.105 12.5635 113.922 12.9256 113.922 13.3813C113.922 13.6418 113.995 13.8818 114.142 14.1016C114.296 14.3132 114.553 14.5247 114.911 14.7363C115.269 14.9479 115.765 15.1839 116.4 15.4443C116.962 15.6722 117.515 15.9326 118.06 16.2256C118.606 16.5104 119.057 16.8807 119.415 17.3364C119.781 17.784 119.965 18.37 119.965 19.0942C119.965 19.8104 119.773 20.4451 119.391 20.9985C119.017 21.5438 118.492 21.971 117.816 22.2803C117.149 22.5895 116.376 22.7441 115.497 22.7441C114.04 22.7441 112.681 22.3088 111.42 21.438Z" fill="#313131"/>
<path fill-rule="evenodd" clip-rule="evenodd" d="M142.69 4H124.69V6L132.69 15V20H127.69V22H139.69V20H134.69V15L142.69 6V4ZM136.46 10L133.69 13.11L130.92 10H136.46ZM127.35 6L129.12 8H138.26L140.04 6H127.35Z" fill="#FFDF1E"/>
</svg>
